<svg width="1007" height="454" viewBox="0 0 1007 454" fill="none" xmlns="http://www.w3.org/2000/svg">
<rect x="84.9247" y="28.5278" width="115.786" height="133.6" rx="18" transform="rotate(-5 84.9247 28.5278)" fill="#0F0F0F"/>
<rect x="952.109" y="178.98" width="49.0297" height="69.3932" rx="18" transform="rotate(-5 952.109 178.98)" fill="#0F0F0F"/>
<rect x="400.706" y="347.397" width="49.0297" height="69.3932" rx="18" transform="rotate(-5 400.706 347.397)" fill="#0F0F0F"/>
<rect x="763.343" y="285.388" width="115.786" height="133.6" rx="18" transform="rotate(-5 763.343 285.388)" fill="#0F0F0F"/>
<rect x="516.385" y="10.0913" width="115.786" height="133.6" rx="18" transform="rotate(-5 516.385 10.0913)" fill="#0F0F0F"/>
<rect x="315.688" y="30.2949" width="136.064" height="218.71" rx="18" transform="rotate(-5 315.688 30.2949)" fill="#0F0F0F"/>
<rect x="744.017" y="17.3398" width="136.064" height="218.71" rx="18" transform="rotate(-5 744.017 17.3398)" fill="#0F0F0F"/>
<rect x="116.503" y="235.148" width="136.064" height="218.71" rx="18" transform="rotate(-5 116.503 235.148)" fill="#0F0F0F"/>
<path d="M529.397 230.408C528.531 220.505 535.856 211.774 545.76 210.908L645.443 202.187C655.346 201.32 664.076 208.646 664.943 218.549L680.867 400.564C681.733 410.467 674.408 419.198 664.504 420.064L564.822 428.786C554.918 429.652 546.188 422.326 545.321 412.423L529.397 230.408Z" fill="#0F0F0F"/>
<rect y="235.273" width="49.0297" height="69.3932" rx="18" transform="rotate(-5 0 235.273)" fill="#0F0F0F"/>
<rect x="228.002" y="33.7686" width="339.74" height="111.406" rx="16" fill="black" stroke="#2E2E2E" stroke-width="6"/>
<rect x="243.625" y="47.772" width="126.313" height="23.4812" rx="5" fill="#202020"/>
<rect x="243.625" y="80.9697" width="242.909" height="23.4812" rx="5" fill="#111111"/>
<rect x="243.625" y="120.645" width="71.2532" height="10.526" fill="#DC2626" fill-opacity="0.44"/>
<rect x="327.024" y="120.645" width="71.2532" height="10.526" fill="#D9D9D9"/>
<rect x="156.749" y="170.607" width="339.74" height="111.406" rx="16" fill="black" stroke="#2E2E2E" stroke-width="6"/>
<rect x="172.372" y="184.61" width="126.313" height="23.4812" rx="5" fill="#202020"/>
<rect x="172.372" y="217.808" width="242.909" height="23.4812" rx="5" fill="#111111"/>
<rect x="172.372" y="257.483" width="71.2532" height="10.526" fill="#D9D9D9"/>
<rect x="255.771" y="257.483" width="71.2532" height="10.526" fill="#DC2626" fill-opacity="0.45"/>
<rect x="245.006" y="316.352" width="339.74" height="111.406" rx="16" fill="black" stroke="#2E2E2E" stroke-width="6"/>
<rect x="260.629" y="330.355" width="126.313" height="23.4812" rx="5" fill="#202020"/>
<rect x="260.629" y="363.553" width="242.909" height="23.4812" rx="5" fill="#111111"/>
<rect x="260.629" y="403.229" width="71.2532" height="10.526" fill="#D9D9D9"/>
<rect x="344.027" y="403.229" width="71.2532" height="10.526" fill="#DC2626" fill-opacity="0.45"/>
</svg>
